#!OML:ASF I:\Random Stuff\random\construction\7_22_03\Session 2\subj1.ASF
:FULLY-SPECIFIED
:DEGREES
595
root 4.98493 17.7836 -1.22934 -54.9992 83.4873 -58.1344
lowerback 8.60693 1.7019 -3.91875
upperback -1.43125 1.84067 -0.110682
thorax -6.46104 1.04812 1.82712
lowerneck -23.8381 1.04984 2.09637
upperneck 24.8442 1.51558 -2.17332
head 12.1923 0.641819 -0.898432
rclavicle -4.87022e-015 -1.11319e-014
rhumerus -33.706 3.44625 -68.5721
rradius 48.654
rwrist -29.9403
rhand -34.2078 15.7452
rfingers 7.12502
rthumb -7.38017 -14.1061
lclavicle -4.87022e-015 -1.11319e-014
lhumerus -40.3045 -4.96021 80.8575
lradius 56.6099
lwrist 66.0596
lhand -18.9183 67.1868
lfingers 7.12502
lthumb 7.38402 -97.0379
rfemur -32.5377 15.3449 0.721042
rtibia 11.4547
rfoot 19.1948 -4.94373
rtoes -15.1317
lfemur -8.41732 -5.25982 -21.9166
ltibia 19.9471
lfoot -13.9377 1.70749
ltoes -2.87849
596
root 4.98065 17.7779 -1.23802 -55.4085 83.339 -58.5032
lowerback 8.57768 1.6237 -3.85448
upperback -1.29679 1.75217 -0.0320977
thorax -6.2965 0.999487 1.88922
lowerneck -24.0488 1.07147 1.93143
upperneck 24.7297 1.59601 -2.17525
head 12.1891 0.656967 -0.857381
rclavicle 1.05356e-014 -1.59028e-015
rhumerus -33.5033 3.54776 -68.549
rradius 48.531
rwrist -30.2088
rhand -34.1729 15.438
rfingers 7.12502
rthumb -7.34642 -14.4145
lclavicle 1.05356e-014 -1.59028e-015
lhumerus -40.1219 -4.72941 80.9881
lradius 55.772
lwrist 65.6047
lhand -19.3355 67.5062
lfingers 7.12502
lthumb 6.98133 -97.3711
rfemur -32.831 14.4786 1.64025
rtibia 10.9603
rfoot 19.0217 1.58893
rtoes -15.4495
lfemur -8.50816 -5.51147 -21.8298
ltibia 20.2247
lfoot -14.0165 2.10576
ltoes -3.09191
597
root 4.97536 17.7751 -1.2492 -55.6641 83.1584 -58.7179
lowerback 8.61154 1.57067 -3.6975
upperback -1.22055 1.70083 0.00960082
thorax -6.22784 0.967383 1.85251
lowerneck -24.0846 1.10585 1.99321
upperneck 24.5445 1.67259 -2.38396
head 12.1282 0.665859 -0.932877
rclavicle -9.83984e-015 -1.66979e-014
rhumerus -33.4699 3.68881 -68.5669
rradius 48.5162
rwrist -30.416
rhand -34.0021 15.2168
rfingers 7.12502
rthumb -7.1816 -14.6413
lclavicle -9.83984e-015 -1.66979e-014
lhumerus -40.1455 -4.81235 81.1415
lradius 55.0958
lwrist 65.2918
lhand -19.6387 67.6403
lfingers 7.12502
lthumb 6.68859 -97.5147
rfemur -33.1868 13.4017 2.83126
rtibia 10.589
rfoot 19.692 8.47832
rtoes -16.6803
lfemur -8.6339 -5.74825 -21.735
ltibia 20.5345
lfoot -14.1378 2.55713
ltoes -3.48083
598
root 4.96977 17.7711 -1.26027 -55.8314 83.0128 -58.887
lowerback 8.63939 1.50404 -3.54365
upperback -1.19554 1.62874 0.025936
thorax -6.20828 0.926216 1.79324
lowerneck -24.2195 1.2123 2.23743
upperneck 24.4887 1.81759 -2.70341
head 12.1426 0.707577 -1.06932
rclavicle 1.3418e-014 -8.74653e-015
rhumerus -33.4765 3.93774 -68.6114
rradius 48.5145
rwrist -30.4626
rhand -33.7401 15.0627
rfingers 7.12502
rthumb -6.92869 -14.8039
lclavicle 1.3418e-014 -8.74653e-015
lhumerus -40.3282 -4.95301 81.2694
lradius 54.4995
lwrist 64.9956
lhand -19.5608 67.5949
lfingers 7.12502
lthumb 6.76385 -97.4669
rfemur -33.6247 12.8676 3.71536
rtibia 10.4131
rfoot 21.283 13.6827
rtoes -14.1203
lfemur -8.83287 -5.95244 -21.6572
ltibia 20.9098
lfoot -14.2487 2.88744
ltoes -3.02441
599
root 4.96383 17.7617 -1.26816 -56.2504 82.9396 -59.3394
lowerback 8.62127 1.41551 -3.45941
upperback -1.1833 1.52194 0.0482132
thorax -6.17668 0.870582 1.78499
lowerneck -23.9604 1.21596 2.21097
upperneck 24.1915 1.86795 -2.84355
head 11.9796 0.709515 -1.10746
rclavicle 2.14687e-014 -2.94201e-014
rhumerus -33.4813 4.2232 -68.6448
rradius 48.4867
rwrist -30.1557
rhand -33.385 15.0468
rfingers 7.12502
rthumb -6.58589 -14.8308
lclavicle 2.14687e-014 -2.94201e-014
lhumerus -40.5197 -4.93114 81.3593
lradius 53.9238
lwrist 64.6904
lhand -19.1351 67.6784
lfingers 7.12502
lthumb 7.1747 -97.5368
rfemur -34.1193 12.9124 4.21759
rtibia 10.5479
rfoot 23.2327 17.6626
rtoes -12.6265
lfemur -9.06979 -6.16058 -21.5958
ltibia 21.3275
lfoot -14.4092 3.06745
ltoes -2.32675
600
root 4.95892 17.7454 -1.27233 -57.2392 82.984 -60.373
lowerback 8.59457 1.30274 -3.43631
upperback -1.17092 1.37623 0.0637221
thorax -6.1395 0.797774 1.80952
lowerneck -23.8425 1.29355 2.29301
upperneck 24.144 2.00448 -3.02992
head 11.946 0.754474 -1.16762
rclavicle 1.37161e-014 1.11319e-014
rhumerus -33.48 4.40374 -68.66
rradius 48.3747
rwrist -29.3452
rhand -32.9913 15.273
rfingers 7.12502
rthumb -6.20586 -14.6161
lclavicle 1.37161e-014 1.11319e-014
lhumerus -40.7633 -4.98301 81.4712
lradius 53.5445
lwrist 64.7112
lhand -19.0206 67.6317
lfingers 7.12502
lthumb 7.28528 -97.4863
rfemur -34.6704 12.7507 4.84028
rtibia 11.01
rfoot 25.2436 20.4208
rtoes -10.899
lfemur -9.37052 -6.29448 -21.583
ltibia 21.7912
lfoot -14.6152 3.02892
ltoes -1.76827
601
root 4.95242 17.7341 -1.27489 -59.2063 83.1336 -62.3959
lowerback 8.5519 1.12004 -3.44466
upperback -1.13353 1.13577 0.0912015
thorax -6.06217 0.678779 1.87779
lowerneck -23.9133 1.38808 2.34156
upperneck 24.1904 2.17484 -3.21067
head 11.9865 0.810011 -1.21489
rclavicle -1.02374e-014 1.11319e-014
rhumerus -33.3458 4.55387 -68.6676
rradius 48.1452
rwrist -28.0883
rhand -32.5169 15.3853
rfingers 7.12502
rthumb -5.74784 -14.5167
lclavicle -1.02374e-014 1.11319e-014
lhumerus -41.0031 -4.99692 81.5598
lradius 53.2719
lwrist 64.9006
lhand -19.4808 67.5357
lfingers 7.12502
lthumb 6.84107 -97.4052
rfemur -35.2099 13.6063 4.57506
rtibia 11.77
rfoot 26.736 21.547
rtoes -9.74753
lfemur -9.72226 -6.32614 -21.6005
ltibia 22.2527
lfoot -14.7718 2.79418
ltoes -1.78632
602
root 4.94481 17.7244 -1.27723 -62.6468 83.2532 -65.8828
lowerback 8.54141 0.874298 -3.33522
upperback -1.11031 0.822067 0.117867
thorax -6.0112 0.520195 1.88792
lowerneck -24.0107 1.50066 2.57041
upperneck 24.2795 2.33367 -3.49267
head 12.0527 0.86341 -1.33285
rclavicle 9.0447e-015 1.51076e-014
rhumerus -33.1829 4.59002 -68.7287
rradius 47.8535
rwrist -26.5929
rhand -31.996 15.2012
rfingers 7.12502
rthumb -5.24485 -14.7139
lclavicle 9.0447e-015 1.51076e-014
lhumerus -41.2386 -4.96538 81.5487
lradius 53.0002
lwrist 65.0512
lhand -19.8064 67.7881
lfingers 7.12502
lthumb 6.52673 -97.6676
rfemur -35.7133 14.1907 4.49807
rtibia 12.7901
rfoot 28.1139 22.0986
rtoes -8.2908
lfemur -10.0487 -6.29953 -21.5207
ltibia 22.6613
lfoot -14.9117 2.45441
ltoes -2.29184
603
root 4.9339 17.72 -1.28136 -67.7066 83.3268 -70.9473
lowerback 8.6621 0.610273 -3.06635
upperback -1.12774 0.493786 0.116242
thorax -6.07558 0.350686 1.77926
lowerneck -24.0625 1.57456 2.83204
upperneck 24.3946 2.40889 -3.71036
head 12.1172 0.892206 -1.44692
rclavicle 2.98177e-015 9.54166e-015
rhumerus -33.1574 4.43337 -68.8306
rradius 47.5389
rwrist -25.3134
rhand -31.4767 15.1471
rfingers 7.12502
rthumb -4.74345 -14.7798
lclavicle 2.98177e-015 9.54166e-015
lhumerus -41.4599 -5.10894 81.5263
lradius 52.7083
lwrist 65.2997
lhand -19.9183 68.2132
lfingers 7.12502
lthumb 6.41867 -98.096
rfemur -36.1667 14.4504 4.62415
rtibia 14.0894
rfoot 29.3053 22.296
rtoes -5.02318
lfemur -10.2647 -6.35562 -21.3506
ltibia 22.8991
lfoot -14.9656 2.00348
ltoes -1.93651
